<mxfile host="app.diagrams.net" modified="2024-07-01T05:58:02.754Z" agent="Mozilla/5.0 (Windows NT 10.0; Win64; x64) AppleWebKit/537.36 (KHTML, like Gecko) Chrome/126.0.0.0 Safari/537.36 Edg/126.0.0.0" etag="Dii81Qg2UgcKhVMzbmTT" version="24.6.4" type="github">
  <diagram name="Page-1" id="N7hsxx79euzE8lsb6M3v">
    <mxGraphModel dx="1957" dy="1686" grid="1" gridSize="10" guides="1" tooltips="1" connect="1" arrows="1" fold="1" page="1" pageScale="1" pageWidth="850" pageHeight="1100" math="0" shadow="0">
      <root>
        <mxCell id="0" />
        <mxCell id="1" parent="0" />
        <mxCell id="4PwBrLp2V8Jp-5wN65FK-7" value="" style="swimlane;startSize=0;" vertex="1" parent="1">
          <mxGeometry x="-76" y="-160" width="166" height="130" as="geometry">
            <mxRectangle x="320" y="-100" width="50" height="40" as="alternateBounds" />
          </mxGeometry>
        </mxCell>
        <mxCell id="4PwBrLp2V8Jp-5wN65FK-3" value="Docs" style="strokeWidth=2;html=1;shape=mxgraph.flowchart.multi-document;whiteSpace=wrap;" vertex="1" parent="4PwBrLp2V8Jp-5wN65FK-7">
          <mxGeometry x="26" y="10" width="88" height="60" as="geometry" />
        </mxCell>
        <mxCell id="4PwBrLp2V8Jp-5wN65FK-8" value="Folder certain" style="text;html=1;align=center;verticalAlign=middle;resizable=0;points=[];autosize=1;strokeColor=none;fillColor=none;" vertex="1" parent="4PwBrLp2V8Jp-5wN65FK-7">
          <mxGeometry x="36" y="85" width="100" height="30" as="geometry" />
        </mxCell>
        <mxCell id="4PwBrLp2V8Jp-5wN65FK-14" value="" style="edgeStyle=orthogonalEdgeStyle;rounded=0;orthogonalLoop=1;jettySize=auto;html=1;" edge="1" parent="1" source="4PwBrLp2V8Jp-5wN65FK-9" target="4PwBrLp2V8Jp-5wN65FK-13">
          <mxGeometry relative="1" as="geometry" />
        </mxCell>
        <mxCell id="4PwBrLp2V8Jp-5wN65FK-16" value="" style="edgeStyle=orthogonalEdgeStyle;rounded=0;orthogonalLoop=1;jettySize=auto;html=1;" edge="1" parent="1" source="4PwBrLp2V8Jp-5wN65FK-9" target="4PwBrLp2V8Jp-5wN65FK-15">
          <mxGeometry relative="1" as="geometry" />
        </mxCell>
        <mxCell id="4PwBrLp2V8Jp-5wN65FK-9" value="" style="strokeWidth=2;html=1;shape=mxgraph.flowchart.decision;whiteSpace=wrap;" vertex="1" parent="1">
          <mxGeometry x="270" y="-145" width="100" height="100" as="geometry" />
        </mxCell>
        <mxCell id="4PwBrLp2V8Jp-5wN65FK-12" value="Extract Files" style="text;html=1;align=center;verticalAlign=middle;resizable=0;points=[];autosize=1;strokeColor=none;fillColor=none;" vertex="1" parent="1">
          <mxGeometry x="125" y="-122" width="90" height="30" as="geometry" />
        </mxCell>
        <mxCell id="4PwBrLp2V8Jp-5wN65FK-13" value="End" style="html=1;dashed=0;whiteSpace=wrap;shape=mxgraph.dfd.start" vertex="1" parent="1">
          <mxGeometry x="280" y="-240" width="80" height="30" as="geometry" />
        </mxCell>
        <mxCell id="4PwBrLp2V8Jp-5wN65FK-28" style="edgeStyle=orthogonalEdgeStyle;rounded=0;orthogonalLoop=1;jettySize=auto;html=1;" edge="1" parent="1" source="4PwBrLp2V8Jp-5wN65FK-15" target="4PwBrLp2V8Jp-5wN65FK-27">
          <mxGeometry relative="1" as="geometry" />
        </mxCell>
        <mxCell id="4PwBrLp2V8Jp-5wN65FK-15" value="Process and read&lt;span style=&quot;background-color: initial;&quot;&gt;&amp;nbsp;files&lt;/span&gt;" style="shape=process;whiteSpace=wrap;html=1;backgroundOutline=1;" vertex="1" parent="1">
          <mxGeometry x="260" y="20" width="120" height="60" as="geometry" />
        </mxCell>
        <mxCell id="4PwBrLp2V8Jp-5wN65FK-17" value="" style="endArrow=classic;startArrow=classic;html=1;rounded=0;exitX=1;exitY=0.5;exitDx=0;exitDy=0;entryX=0;entryY=0.5;entryDx=0;entryDy=0;entryPerimeter=0;" edge="1" parent="1" source="4PwBrLp2V8Jp-5wN65FK-7" target="4PwBrLp2V8Jp-5wN65FK-9">
          <mxGeometry width="50" height="50" relative="1" as="geometry">
            <mxPoint x="160" y="-42" as="sourcePoint" />
            <mxPoint x="210" y="-92" as="targetPoint" />
            <Array as="points" />
          </mxGeometry>
        </mxCell>
        <mxCell id="4PwBrLp2V8Jp-5wN65FK-19" value="&lt;h1 style=&quot;margin-top: 0px;&quot;&gt;Steps&lt;/h1&gt;&lt;p&gt;1. extract files from folder of input&lt;/p&gt;&lt;p&gt;2. read these files and get take these contents&lt;/p&gt;&lt;p&gt;3. process these files content&lt;/p&gt;&lt;p&gt;&lt;br&gt;&lt;/p&gt;" style="text;html=1;whiteSpace=wrap;overflow=hidden;rounded=0;" vertex="1" parent="1">
          <mxGeometry x="530" y="-310" width="290" height="220" as="geometry" />
        </mxCell>
        <mxCell id="4PwBrLp2V8Jp-5wN65FK-21" value="Y" style="text;html=1;align=center;verticalAlign=middle;resizable=0;points=[];autosize=1;strokeColor=none;fillColor=none;" vertex="1" parent="1">
          <mxGeometry x="315" y="-32" width="30" height="30" as="geometry" />
        </mxCell>
        <mxCell id="4PwBrLp2V8Jp-5wN65FK-22" value="N" style="text;html=1;align=center;verticalAlign=middle;resizable=0;points=[];autosize=1;strokeColor=none;fillColor=none;" vertex="1" parent="1">
          <mxGeometry x="315" y="-192" width="30" height="30" as="geometry" />
        </mxCell>
        <mxCell id="4PwBrLp2V8Jp-5wN65FK-48" value="" style="edgeStyle=orthogonalEdgeStyle;rounded=0;orthogonalLoop=1;jettySize=auto;html=1;" edge="1" parent="1" source="4PwBrLp2V8Jp-5wN65FK-26" target="4PwBrLp2V8Jp-5wN65FK-47">
          <mxGeometry relative="1" as="geometry" />
        </mxCell>
        <mxCell id="4PwBrLp2V8Jp-5wN65FK-26" value="" style="shape=cylinder3;whiteSpace=wrap;html=1;boundedLbl=1;backgroundOutline=1;size=15;" vertex="1" parent="1">
          <mxGeometry x="470" y="390" width="60" height="80" as="geometry" />
        </mxCell>
        <mxCell id="4PwBrLp2V8Jp-5wN65FK-31" value="" style="edgeStyle=orthogonalEdgeStyle;rounded=0;orthogonalLoop=1;jettySize=auto;html=1;" edge="1" parent="1" source="4PwBrLp2V8Jp-5wN65FK-27" target="4PwBrLp2V8Jp-5wN65FK-30">
          <mxGeometry relative="1" as="geometry" />
        </mxCell>
        <mxCell id="4PwBrLp2V8Jp-5wN65FK-34" value="" style="edgeStyle=orthogonalEdgeStyle;rounded=0;orthogonalLoop=1;jettySize=auto;html=1;" edge="1" parent="1" source="4PwBrLp2V8Jp-5wN65FK-27" target="4PwBrLp2V8Jp-5wN65FK-33">
          <mxGeometry relative="1" as="geometry" />
        </mxCell>
        <mxCell id="4PwBrLp2V8Jp-5wN65FK-27" value="" style="rhombus;whiteSpace=wrap;html=1;" vertex="1" parent="1">
          <mxGeometry x="460" y="10" width="80" height="80" as="geometry" />
        </mxCell>
        <mxCell id="4PwBrLp2V8Jp-5wN65FK-30" value="End" style="html=1;dashed=0;whiteSpace=wrap;shape=mxgraph.dfd.start" vertex="1" parent="1">
          <mxGeometry x="460" y="-80" width="80" height="30" as="geometry" />
        </mxCell>
        <mxCell id="4PwBrLp2V8Jp-5wN65FK-32" value="N" style="text;html=1;align=center;verticalAlign=middle;resizable=0;points=[];autosize=1;strokeColor=none;fillColor=none;" vertex="1" parent="1">
          <mxGeometry x="495" y="-32" width="30" height="30" as="geometry" />
        </mxCell>
        <mxCell id="4PwBrLp2V8Jp-5wN65FK-37" value="" style="edgeStyle=orthogonalEdgeStyle;rounded=0;orthogonalLoop=1;jettySize=auto;html=1;" edge="1" parent="1" source="4PwBrLp2V8Jp-5wN65FK-33" target="4PwBrLp2V8Jp-5wN65FK-36">
          <mxGeometry relative="1" as="geometry" />
        </mxCell>
        <mxCell id="4PwBrLp2V8Jp-5wN65FK-33" value="Process Contents" style="shape=process;whiteSpace=wrap;html=1;backgroundOutline=1;" vertex="1" parent="1">
          <mxGeometry x="440" y="140" width="120" height="60" as="geometry" />
        </mxCell>
        <mxCell id="4PwBrLp2V8Jp-5wN65FK-35" value="Y" style="text;html=1;align=center;verticalAlign=middle;resizable=0;points=[];autosize=1;strokeColor=none;fillColor=none;" vertex="1" parent="1">
          <mxGeometry x="495" y="98" width="30" height="30" as="geometry" />
        </mxCell>
        <mxCell id="4PwBrLp2V8Jp-5wN65FK-39" value="" style="edgeStyle=orthogonalEdgeStyle;rounded=0;orthogonalLoop=1;jettySize=auto;html=1;" edge="1" parent="1" source="4PwBrLp2V8Jp-5wN65FK-36" target="4PwBrLp2V8Jp-5wN65FK-38">
          <mxGeometry relative="1" as="geometry" />
        </mxCell>
        <mxCell id="4PwBrLp2V8Jp-5wN65FK-45" value="" style="edgeStyle=orthogonalEdgeStyle;rounded=0;orthogonalLoop=1;jettySize=auto;html=1;" edge="1" parent="1" source="4PwBrLp2V8Jp-5wN65FK-36" target="4PwBrLp2V8Jp-5wN65FK-26">
          <mxGeometry relative="1" as="geometry" />
        </mxCell>
        <mxCell id="4PwBrLp2V8Jp-5wN65FK-36" value="" style="rhombus;whiteSpace=wrap;html=1;" vertex="1" parent="1">
          <mxGeometry x="460" y="250" width="80" height="80" as="geometry" />
        </mxCell>
        <mxCell id="4PwBrLp2V8Jp-5wN65FK-38" value="End" style="html=1;dashed=0;whiteSpace=wrap;shape=mxgraph.dfd.start" vertex="1" parent="1">
          <mxGeometry x="620" y="275" width="80" height="30" as="geometry" />
        </mxCell>
        <mxCell id="4PwBrLp2V8Jp-5wN65FK-40" value="N" style="text;html=1;align=center;verticalAlign=middle;resizable=0;points=[];autosize=1;strokeColor=none;fillColor=none;" vertex="1" parent="1">
          <mxGeometry x="565" y="258" width="30" height="30" as="geometry" />
        </mxCell>
        <mxCell id="4PwBrLp2V8Jp-5wN65FK-46" value="Y" style="text;html=1;align=center;verticalAlign=middle;resizable=0;points=[];autosize=1;strokeColor=none;fillColor=none;" vertex="1" parent="1">
          <mxGeometry x="470" y="348" width="30" height="30" as="geometry" />
        </mxCell>
        <mxCell id="4PwBrLp2V8Jp-5wN65FK-51" value="" style="edgeStyle=orthogonalEdgeStyle;rounded=0;orthogonalLoop=1;jettySize=auto;html=1;" edge="1" parent="1" source="4PwBrLp2V8Jp-5wN65FK-47" target="4PwBrLp2V8Jp-5wN65FK-50">
          <mxGeometry relative="1" as="geometry" />
        </mxCell>
        <mxCell id="4PwBrLp2V8Jp-5wN65FK-47" value="Obtain Data" style="rounded=1;whiteSpace=wrap;html=1;" vertex="1" parent="1">
          <mxGeometry x="260" y="400" width="120" height="60" as="geometry" />
        </mxCell>
        <mxCell id="4PwBrLp2V8Jp-5wN65FK-49" value="Obtain" style="text;html=1;align=center;verticalAlign=middle;resizable=0;points=[];autosize=1;strokeColor=none;fillColor=none;" vertex="1" parent="1">
          <mxGeometry x="395" y="408" width="60" height="30" as="geometry" />
        </mxCell>
        <mxCell id="4PwBrLp2V8Jp-5wN65FK-53" value="" style="edgeStyle=orthogonalEdgeStyle;rounded=0;orthogonalLoop=1;jettySize=auto;html=1;" edge="1" parent="1" source="4PwBrLp2V8Jp-5wN65FK-50" target="4PwBrLp2V8Jp-5wN65FK-52">
          <mxGeometry relative="1" as="geometry" />
        </mxCell>
        <mxCell id="4PwBrLp2V8Jp-5wN65FK-56" value="" style="edgeStyle=orthogonalEdgeStyle;rounded=0;orthogonalLoop=1;jettySize=auto;html=1;" edge="1" parent="1" source="4PwBrLp2V8Jp-5wN65FK-50" target="4PwBrLp2V8Jp-5wN65FK-55">
          <mxGeometry relative="1" as="geometry" />
        </mxCell>
        <mxCell id="4PwBrLp2V8Jp-5wN65FK-50" value="" style="rhombus;whiteSpace=wrap;html=1;" vertex="1" parent="1">
          <mxGeometry x="110" y="390" width="80" height="80" as="geometry" />
        </mxCell>
        <mxCell id="4PwBrLp2V8Jp-5wN65FK-52" value="End" style="html=1;dashed=0;whiteSpace=wrap;shape=mxgraph.dfd.start" vertex="1" parent="1">
          <mxGeometry x="110" y="300" width="80" height="30" as="geometry" />
        </mxCell>
        <mxCell id="4PwBrLp2V8Jp-5wN65FK-54" value="N" style="text;html=1;align=center;verticalAlign=middle;resizable=0;points=[];autosize=1;strokeColor=none;fillColor=none;" vertex="1" parent="1">
          <mxGeometry x="145" y="348" width="30" height="30" as="geometry" />
        </mxCell>
        <mxCell id="4PwBrLp2V8Jp-5wN65FK-59" value="" style="edgeStyle=orthogonalEdgeStyle;rounded=0;orthogonalLoop=1;jettySize=auto;html=1;" edge="1" parent="1" source="4PwBrLp2V8Jp-5wN65FK-55" target="4PwBrLp2V8Jp-5wN65FK-58">
          <mxGeometry relative="1" as="geometry" />
        </mxCell>
        <mxCell id="4PwBrLp2V8Jp-5wN65FK-55" value="Process Data" style="shape=process;whiteSpace=wrap;html=1;backgroundOutline=1;" vertex="1" parent="1">
          <mxGeometry x="90" y="540" width="120" height="60" as="geometry" />
        </mxCell>
        <mxCell id="4PwBrLp2V8Jp-5wN65FK-57" value="Y" style="text;html=1;align=center;verticalAlign=middle;resizable=0;points=[];autosize=1;strokeColor=none;fillColor=none;" vertex="1" parent="1">
          <mxGeometry x="145" y="490" width="30" height="30" as="geometry" />
        </mxCell>
        <mxCell id="4PwBrLp2V8Jp-5wN65FK-61" value="" style="edgeStyle=orthogonalEdgeStyle;rounded=0;orthogonalLoop=1;jettySize=auto;html=1;" edge="1" parent="1" source="4PwBrLp2V8Jp-5wN65FK-58" target="4PwBrLp2V8Jp-5wN65FK-60">
          <mxGeometry relative="1" as="geometry" />
        </mxCell>
        <mxCell id="4PwBrLp2V8Jp-5wN65FK-58" value="" style="rhombus;whiteSpace=wrap;html=1;" vertex="1" parent="1">
          <mxGeometry x="280" y="530" width="80" height="80" as="geometry" />
        </mxCell>
        <mxCell id="4PwBrLp2V8Jp-5wN65FK-60" value="End" style="html=1;dashed=0;whiteSpace=wrap;shape=mxgraph.dfd.start" vertex="1" parent="1">
          <mxGeometry x="280" y="670" width="80" height="30" as="geometry" />
        </mxCell>
        <mxCell id="4PwBrLp2V8Jp-5wN65FK-62" style="edgeStyle=orthogonalEdgeStyle;rounded=0;orthogonalLoop=1;jettySize=auto;html=1;entryX=0.5;entryY=1;entryDx=0;entryDy=0;entryPerimeter=0;" edge="1" parent="1" source="4PwBrLp2V8Jp-5wN65FK-58" target="4PwBrLp2V8Jp-5wN65FK-26">
          <mxGeometry relative="1" as="geometry" />
        </mxCell>
        <mxCell id="4PwBrLp2V8Jp-5wN65FK-63" value="N" style="text;html=1;align=center;verticalAlign=middle;resizable=0;points=[];autosize=1;strokeColor=none;fillColor=none;" vertex="1" parent="1">
          <mxGeometry x="315" y="618" width="30" height="30" as="geometry" />
        </mxCell>
        <mxCell id="4PwBrLp2V8Jp-5wN65FK-64" value="Y" style="text;html=1;align=center;verticalAlign=middle;resizable=0;points=[];autosize=1;strokeColor=none;fillColor=none;" vertex="1" parent="1">
          <mxGeometry x="455" y="548" width="30" height="30" as="geometry" />
        </mxCell>
      </root>
    </mxGraphModel>
  </diagram>
</mxfile>
